<svg xmlns="http://www.w3.org/2000/svg" width="1240" height="1010" viewBox="0 0 1240 1010" font-family="Pretendard, Noto Sans CJK KR, sans-serif">
<rect width="1240" height="1010" fill="#ffffff"/>
<path d="M60 60 L1090 60 L1180 150 L1180 960 L150 960 L60 870 Z" fill="#1b7a96" stroke="#14607a" stroke-width="3"/>
<circle cx="120" cy="100" r="16" fill="#ffffff"/>
<circle cx="1120" cy="200" r="16" fill="#ffffff"/>
<circle cx="1120" cy="910" r="16" fill="#ffffff"/>
<circle cx="210" cy="910" r="16" fill="#ffffff"/>
<rect x="40" y="210" width="120" height="110" fill="#b9bec4" stroke="#8d9298" stroke-width="2"/>
<text x="620" y="105" font-size="26" font-weight="bold" fill="#ffffff" text-anchor="middle">Arduino Gorilla Shield 1.0 × Wemos D1 R32</text>
<text x="620" y="132" font-size="15" fill="#dbe9ee" text-anchor="middle">노란 칸 = 코드에서 쓰는 ESP32 GPIO 번호 · (괄호) = 실드에 인쇄된 우노 라벨</text>
<text x="436.0" y="192" font-size="16" font-weight="bold" fill="#ffffff" text-anchor="middle">JOY</text>
<rect x="330" y="200" width="50" height="26" rx="3" fill="#1c1c1c"/>
<text x="355.0" y="217.68" font-size="13" font-weight="bold" fill="#ffffff" text-anchor="middle">G</text>
<rect x="330" y="230" width="50" height="26" rx="3" fill="#a92433"/>
<text x="355.0" y="247.68" font-size="13" font-weight="bold" fill="#ffffff" text-anchor="middle">V</text>
<rect x="330" y="260" width="50" height="44" rx="3" fill="#f5d75d"/>
<text x="355.0" y="279.0" font-size="16" font-weight="bold" fill="#3a3000" text-anchor="middle">35*</text>
<text x="355.0" y="298" font-size="10" fill="#6b5b00" text-anchor="middle">(A2)</text>
<rect x="330" y="308" width="50" height="44" rx="3" fill="#f5d75d"/>
<text x="355.0" y="327.0" font-size="16" font-weight="bold" fill="#3a3000" text-anchor="middle">34*</text>
<text x="355.0" y="346" font-size="10" fill="#6b5b00" text-anchor="middle">(A3)</text>
<rect x="330" y="356" width="50" height="44" rx="3" fill="#f5d75d"/>
<text x="355.0" y="375.0" font-size="16" font-weight="bold" fill="#3a3000" text-anchor="middle">19</text>
<text x="355.0" y="394" font-size="10" fill="#6b5b00" text-anchor="middle">(12)</text>
<rect x="384" y="200" width="50" height="26" rx="3" fill="#1c1c1c"/>
<text x="409.0" y="217.68" font-size="13" font-weight="bold" fill="#ffffff" text-anchor="middle">G</text>
<rect x="384" y="230" width="50" height="26" rx="3" fill="#a92433"/>
<text x="409.0" y="247.68" font-size="13" font-weight="bold" fill="#ffffff" text-anchor="middle">V</text>
<rect x="384" y="260" width="50" height="44" rx="3" fill="#f5d75d"/>
<text x="409.0" y="279.0" font-size="16" font-weight="bold" fill="#3a3000" text-anchor="middle">23</text>
<text x="409.0" y="298" font-size="10" fill="#6b5b00" text-anchor="middle">(11)</text>
<rect x="384" y="308" width="50" height="44" rx="3" fill="#f5d75d"/>
<text x="409.0" y="327.0" font-size="16" font-weight="bold" fill="#3a3000" text-anchor="middle">19</text>
<text x="409.0" y="346" font-size="10" fill="#6b5b00" text-anchor="middle">(12)</text>
<rect x="384" y="356" width="50" height="44" rx="3" fill="#f5d75d"/>
<text x="409.0" y="375.0" font-size="16" font-weight="bold" fill="#3a3000" text-anchor="middle">18</text>
<text x="409.0" y="394" font-size="10" fill="#6b5b00" text-anchor="middle">(13)</text>
<rect x="438" y="200" width="50" height="26" rx="3" fill="#1c1c1c"/>
<text x="463.0" y="217.68" font-size="13" font-weight="bold" fill="#ffffff" text-anchor="middle">G</text>
<rect x="438" y="230" width="50" height="26" rx="3" fill="#a92433"/>
<text x="463.0" y="247.68" font-size="13" font-weight="bold" fill="#ffffff" text-anchor="middle">V</text>
<rect x="438" y="260" width="50" height="44" rx="3" fill="#f5d75d"/>
<text x="463.0" y="279.0" font-size="16" font-weight="bold" fill="#3a3000" text-anchor="middle">5</text>
<text x="463.0" y="298" font-size="10" fill="#6b5b00" text-anchor="middle">(10)</text>
<rect x="438" y="308" width="50" height="44" rx="3" fill="#f5d75d"/>
<text x="463.0" y="327.0" font-size="16" font-weight="bold" fill="#3a3000" text-anchor="middle">23</text>
<text x="463.0" y="346" font-size="10" fill="#6b5b00" text-anchor="middle">(11)</text>
<rect x="438" y="356" width="50" height="44" rx="3" fill="#f5d75d"/>
<text x="463.0" y="375.0" font-size="16" font-weight="bold" fill="#3a3000" text-anchor="middle">19</text>
<text x="463.0" y="394" font-size="10" fill="#6b5b00" text-anchor="middle">(12)</text>
<rect x="492" y="200" width="50" height="26" rx="3" fill="#1c1c1c"/>
<text x="517.0" y="217.68" font-size="13" font-weight="bold" fill="#ffffff" text-anchor="middle">G</text>
<rect x="492" y="230" width="50" height="26" rx="3" fill="#a92433"/>
<text x="517.0" y="247.68" font-size="13" font-weight="bold" fill="#ffffff" text-anchor="middle">V</text>
<rect x="492" y="260" width="50" height="44" rx="3" fill="#f5d75d"/>
<text x="517.0" y="279.0" font-size="16" font-weight="bold" fill="#3a3000" text-anchor="middle">13</text>
<text x="517.0" y="298" font-size="10" fill="#6b5b00" text-anchor="middle">(9)</text>
<rect x="492" y="308" width="50" height="44" rx="3" fill="#f5d75d"/>
<text x="517.0" y="327.0" font-size="16" font-weight="bold" fill="#3a3000" text-anchor="middle">5</text>
<text x="517.0" y="346" font-size="10" fill="#6b5b00" text-anchor="middle">(10)</text>
<rect x="492" y="356" width="50" height="44" rx="3" fill="#f5d75d"/>
<text x="517.0" y="375.0" font-size="16" font-weight="bold" fill="#3a3000" text-anchor="middle">23</text>
<text x="517.0" y="394" font-size="10" fill="#6b5b00" text-anchor="middle">(11)</text>
<text x="706.0" y="192" font-size="16" font-weight="bold" fill="#ffffff" text-anchor="middle">Digital I./O</text>
<rect x="600" y="200" width="50" height="26" rx="3" fill="#1c1c1c"/>
<text x="625.0" y="217.68" font-size="13" font-weight="bold" fill="#ffffff" text-anchor="middle">G</text>
<rect x="600" y="230" width="50" height="26" rx="3" fill="#a92433"/>
<text x="625.0" y="247.68" font-size="13" font-weight="bold" fill="#ffffff" text-anchor="middle">V</text>
<rect x="600" y="260" width="50" height="44" rx="3" fill="#f5d75d"/>
<text x="625.0" y="279.0" font-size="16" font-weight="bold" fill="#3a3000" text-anchor="middle">12</text>
<text x="625.0" y="298" font-size="10" fill="#6b5b00" text-anchor="middle">(8)</text>
<rect x="600" y="308" width="50" height="44" rx="3" fill="#f5d75d"/>
<text x="625.0" y="327.0" font-size="16" font-weight="bold" fill="#3a3000" text-anchor="middle">13</text>
<text x="625.0" y="346" font-size="10" fill="#6b5b00" text-anchor="middle">(9)</text>
<rect x="654" y="200" width="50" height="26" rx="3" fill="#1c1c1c"/>
<text x="679.0" y="217.68" font-size="13" font-weight="bold" fill="#ffffff" text-anchor="middle">G</text>
<rect x="654" y="230" width="50" height="26" rx="3" fill="#a92433"/>
<text x="679.0" y="247.68" font-size="13" font-weight="bold" fill="#ffffff" text-anchor="middle">V</text>
<rect x="654" y="260" width="50" height="44" rx="3" fill="#f5d75d"/>
<text x="679.0" y="279.0" font-size="16" font-weight="bold" fill="#3a3000" text-anchor="middle">14</text>
<text x="679.0" y="298" font-size="10" fill="#6b5b00" text-anchor="middle">(7)</text>
<rect x="654" y="308" width="50" height="44" rx="3" fill="#f5d75d"/>
<text x="679.0" y="327.0" font-size="16" font-weight="bold" fill="#3a3000" text-anchor="middle">12</text>
<text x="679.0" y="346" font-size="10" fill="#6b5b00" text-anchor="middle">(8)</text>
<rect x="708" y="200" width="50" height="26" rx="3" fill="#1c1c1c"/>
<text x="733.0" y="217.68" font-size="13" font-weight="bold" fill="#ffffff" text-anchor="middle">G</text>
<rect x="708" y="230" width="50" height="26" rx="3" fill="#a92433"/>
<text x="733.0" y="247.68" font-size="13" font-weight="bold" fill="#ffffff" text-anchor="middle">V</text>
<rect x="708" y="260" width="50" height="44" rx="3" fill="#f5d75d"/>
<text x="733.0" y="279.0" font-size="16" font-weight="bold" fill="#3a3000" text-anchor="middle">27</text>
<text x="733.0" y="298" font-size="10" fill="#6b5b00" text-anchor="middle">(6)</text>
<rect x="708" y="308" width="50" height="44" rx="3" fill="#f5d75d"/>
<text x="733.0" y="327.0" font-size="16" font-weight="bold" fill="#3a3000" text-anchor="middle">14</text>
<text x="733.0" y="346" font-size="10" fill="#6b5b00" text-anchor="middle">(7)</text>
<rect x="762" y="200" width="50" height="26" rx="3" fill="#1c1c1c"/>
<text x="787.0" y="217.68" font-size="13" font-weight="bold" fill="#ffffff" text-anchor="middle">G</text>
<rect x="762" y="230" width="50" height="26" rx="3" fill="#a92433"/>
<text x="787.0" y="247.68" font-size="13" font-weight="bold" fill="#ffffff" text-anchor="middle">V</text>
<rect x="762" y="260" width="50" height="44" rx="3" fill="#f5d75d"/>
<text x="787.0" y="279.0" font-size="16" font-weight="bold" fill="#3a3000" text-anchor="middle">16</text>
<text x="787.0" y="298" font-size="10" fill="#6b5b00" text-anchor="middle">(5)</text>
<rect x="762" y="308" width="50" height="44" rx="3" fill="#f5d75d"/>
<text x="787.0" y="327.0" font-size="16" font-weight="bold" fill="#3a3000" text-anchor="middle">27</text>
<text x="787.0" y="346" font-size="10" fill="#6b5b00" text-anchor="middle">(6)</text>
<text x="996.0" y="192" font-size="16" font-weight="bold" fill="#ffffff" text-anchor="middle">BT</text>
<rect x="890" y="200" width="50" height="26" rx="3" fill="#1c1c1c"/>
<text x="915.0" y="217.68" font-size="13" font-weight="bold" fill="#ffffff" text-anchor="middle">G</text>
<rect x="890" y="230" width="50" height="26" rx="3" fill="#a92433"/>
<text x="915.0" y="247.68" font-size="13" font-weight="bold" fill="#ffffff" text-anchor="middle">V</text>
<rect x="890" y="260" width="50" height="44" rx="3" fill="#f5d75d"/>
<text x="915.0" y="279.0" font-size="16" font-weight="bold" fill="#3a3000" text-anchor="middle">17</text>
<text x="915.0" y="298" font-size="10" fill="#6b5b00" text-anchor="middle">(4)</text>
<rect x="890" y="308" width="50" height="44" rx="3" fill="#f5d75d"/>
<text x="915.0" y="327.0" font-size="16" font-weight="bold" fill="#3a3000" text-anchor="middle">16</text>
<text x="915.0" y="346" font-size="10" fill="#6b5b00" text-anchor="middle">(5)</text>
<rect x="944" y="200" width="50" height="26" rx="3" fill="#1c1c1c"/>
<text x="969.0" y="217.68" font-size="13" font-weight="bold" fill="#ffffff" text-anchor="middle">G</text>
<rect x="944" y="230" width="50" height="26" rx="3" fill="#a92433"/>
<text x="969.0" y="247.68" font-size="13" font-weight="bold" fill="#ffffff" text-anchor="middle">V</text>
<rect x="944" y="260" width="50" height="44" rx="3" fill="#f5d75d"/>
<text x="969.0" y="279.0" font-size="16" font-weight="bold" fill="#3a3000" text-anchor="middle">25</text>
<text x="969.0" y="298" font-size="10" fill="#6b5b00" text-anchor="middle">(3)</text>
<rect x="944" y="308" width="50" height="44" rx="3" fill="#f5d75d"/>
<text x="969.0" y="327.0" font-size="16" font-weight="bold" fill="#3a3000" text-anchor="middle">17</text>
<text x="969.0" y="346" font-size="10" fill="#6b5b00" text-anchor="middle">(4)</text>
<rect x="998" y="200" width="50" height="26" rx="3" fill="#1c1c1c"/>
<text x="1023.0" y="217.68" font-size="13" font-weight="bold" fill="#ffffff" text-anchor="middle">G</text>
<rect x="998" y="230" width="50" height="26" rx="3" fill="#a92433"/>
<text x="1023.0" y="247.68" font-size="13" font-weight="bold" fill="#ffffff" text-anchor="middle">V</text>
<rect x="998" y="260" width="50" height="44" rx="3" fill="#f5d75d"/>
<text x="1023.0" y="279.0" font-size="16" font-weight="bold" fill="#3a3000" text-anchor="middle">26</text>
<text x="1023.0" y="298" font-size="10" fill="#6b5b00" text-anchor="middle">(2)</text>
<rect x="998" y="308" width="50" height="44" rx="3" fill="#f5d75d"/>
<text x="1023.0" y="327.0" font-size="16" font-weight="bold" fill="#3a3000" text-anchor="middle">25</text>
<text x="1023.0" y="346" font-size="10" fill="#6b5b00" text-anchor="middle">(3)</text>
<rect x="1052" y="200" width="50" height="26" rx="3" fill="#1c1c1c"/>
<text x="1077.0" y="217.68" font-size="13" font-weight="bold" fill="#ffffff" text-anchor="middle">G</text>
<rect x="1052" y="230" width="50" height="26" rx="3" fill="#a92433"/>
<text x="1077.0" y="247.68" font-size="13" font-weight="bold" fill="#ffffff" text-anchor="middle">V</text>
<rect x="1052" y="260" width="50" height="44" rx="3" fill="#f5d75d"/>
<text x="1077.0" y="279.0" font-size="16" font-weight="bold" fill="#3a3000" text-anchor="middle">3‡</text>
<text x="1077.0" y="298" font-size="10" fill="#6b5b00" text-anchor="middle">(0)</text>
<rect x="1052" y="308" width="50" height="44" rx="3" fill="#f5d75d"/>
<text x="1077.0" y="327.0" font-size="16" font-weight="bold" fill="#3a3000" text-anchor="middle">1‡</text>
<text x="1077.0" y="346" font-size="10" fill="#6b5b00" text-anchor="middle">(1)</text>
<text x="760.0" y="462" font-size="16" font-weight="bold" fill="#ffffff" text-anchor="middle">PWM</text>
<rect x="600" y="470" width="50" height="26" rx="3" fill="#1c1c1c"/>
<text x="625.0" y="487.68" font-size="13" font-weight="bold" fill="#ffffff" text-anchor="middle">G</text>
<rect x="600" y="500" width="50" height="26" rx="3" fill="#a92433"/>
<text x="625.0" y="517.68" font-size="13" font-weight="bold" fill="#ffffff" text-anchor="middle">V</text>
<rect x="600" y="530" width="50" height="44" rx="3" fill="#f5d75d"/>
<text x="625.0" y="549.0" font-size="16" font-weight="bold" fill="#3a3000" text-anchor="middle">23</text>
<text x="625.0" y="568" font-size="10" fill="#6b5b00" text-anchor="middle">(11)</text>
<rect x="600" y="578" width="50" height="44" rx="3" fill="#f5d75d"/>
<text x="625.0" y="597.0" font-size="16" font-weight="bold" fill="#3a3000" text-anchor="middle">25</text>
<text x="625.0" y="616" font-size="10" fill="#6b5b00" text-anchor="middle">(3)</text>
<rect x="654" y="470" width="50" height="26" rx="3" fill="#1c1c1c"/>
<text x="679.0" y="487.68" font-size="13" font-weight="bold" fill="#ffffff" text-anchor="middle">G</text>
<rect x="654" y="500" width="50" height="26" rx="3" fill="#a92433"/>
<text x="679.0" y="517.68" font-size="13" font-weight="bold" fill="#ffffff" text-anchor="middle">V</text>
<rect x="654" y="530" width="50" height="44" rx="3" fill="#f5d75d"/>
<text x="679.0" y="549.0" font-size="16" font-weight="bold" fill="#3a3000" text-anchor="middle">5</text>
<text x="679.0" y="568" font-size="10" fill="#6b5b00" text-anchor="middle">(10)</text>
<rect x="654" y="578" width="50" height="44" rx="3" fill="#f5d75d"/>
<text x="679.0" y="597.0" font-size="16" font-weight="bold" fill="#3a3000" text-anchor="middle">23</text>
<text x="679.0" y="616" font-size="10" fill="#6b5b00" text-anchor="middle">(11)</text>
<rect x="708" y="470" width="50" height="26" rx="3" fill="#1c1c1c"/>
<text x="733.0" y="487.68" font-size="13" font-weight="bold" fill="#ffffff" text-anchor="middle">G</text>
<rect x="708" y="500" width="50" height="26" rx="3" fill="#a92433"/>
<text x="733.0" y="517.68" font-size="13" font-weight="bold" fill="#ffffff" text-anchor="middle">V</text>
<rect x="708" y="530" width="50" height="44" rx="3" fill="#f5d75d"/>
<text x="733.0" y="549.0" font-size="16" font-weight="bold" fill="#3a3000" text-anchor="middle">13</text>
<text x="733.0" y="568" font-size="10" fill="#6b5b00" text-anchor="middle">(9)</text>
<rect x="708" y="578" width="50" height="44" rx="3" fill="#f5d75d"/>
<text x="733.0" y="597.0" font-size="16" font-weight="bold" fill="#3a3000" text-anchor="middle">5</text>
<text x="733.0" y="616" font-size="10" fill="#6b5b00" text-anchor="middle">(10)</text>
<rect x="762" y="470" width="50" height="26" rx="3" fill="#1c1c1c"/>
<text x="787.0" y="487.68" font-size="13" font-weight="bold" fill="#ffffff" text-anchor="middle">G</text>
<rect x="762" y="500" width="50" height="26" rx="3" fill="#a92433"/>
<text x="787.0" y="517.68" font-size="13" font-weight="bold" fill="#ffffff" text-anchor="middle">V</text>
<rect x="762" y="530" width="50" height="44" rx="3" fill="#f5d75d"/>
<text x="787.0" y="549.0" font-size="16" font-weight="bold" fill="#3a3000" text-anchor="middle">27</text>
<text x="787.0" y="568" font-size="10" fill="#6b5b00" text-anchor="middle">(6)</text>
<rect x="762" y="578" width="50" height="44" rx="3" fill="#f5d75d"/>
<text x="787.0" y="597.0" font-size="16" font-weight="bold" fill="#3a3000" text-anchor="middle">13</text>
<text x="787.0" y="616" font-size="10" fill="#6b5b00" text-anchor="middle">(9)</text>
<rect x="816" y="470" width="50" height="26" rx="3" fill="#1c1c1c"/>
<text x="841.0" y="487.68" font-size="13" font-weight="bold" fill="#ffffff" text-anchor="middle">G</text>
<rect x="816" y="500" width="50" height="26" rx="3" fill="#a92433"/>
<text x="841.0" y="517.68" font-size="13" font-weight="bold" fill="#ffffff" text-anchor="middle">V</text>
<rect x="816" y="530" width="50" height="44" rx="3" fill="#f5d75d"/>
<text x="841.0" y="549.0" font-size="16" font-weight="bold" fill="#3a3000" text-anchor="middle">16</text>
<text x="841.0" y="568" font-size="10" fill="#6b5b00" text-anchor="middle">(5)</text>
<rect x="816" y="578" width="50" height="44" rx="3" fill="#f5d75d"/>
<text x="841.0" y="597.0" font-size="16" font-weight="bold" fill="#3a3000" text-anchor="middle">27</text>
<text x="841.0" y="616" font-size="10" fill="#6b5b00" text-anchor="middle">(6)</text>
<rect x="870" y="470" width="50" height="26" rx="3" fill="#1c1c1c"/>
<text x="895.0" y="487.68" font-size="13" font-weight="bold" fill="#ffffff" text-anchor="middle">G</text>
<rect x="870" y="500" width="50" height="26" rx="3" fill="#a92433"/>
<text x="895.0" y="517.68" font-size="13" font-weight="bold" fill="#ffffff" text-anchor="middle">V</text>
<rect x="870" y="530" width="50" height="44" rx="3" fill="#f5d75d"/>
<text x="895.0" y="549.0" font-size="16" font-weight="bold" fill="#3a3000" text-anchor="middle">25</text>
<text x="895.0" y="568" font-size="10" fill="#6b5b00" text-anchor="middle">(3)</text>
<rect x="870" y="578" width="50" height="44" rx="3" fill="#f5d75d"/>
<text x="895.0" y="597.0" font-size="16" font-weight="bold" fill="#3a3000" text-anchor="middle">16</text>
<text x="895.0" y="616" font-size="10" fill="#6b5b00" text-anchor="middle">(5)</text>
<text x="1042.0" y="462" font-size="16" font-weight="bold" fill="#ffffff" text-anchor="middle">SPI</text>
<rect x="990" y="470" width="50" height="26" rx="3" fill="#1c1c1c"/>
<text x="1015.0" y="487.68" font-size="13" font-weight="bold" fill="#ffffff" text-anchor="middle">G</text>
<rect x="990" y="500" width="50" height="26" rx="3" fill="#a92433"/>
<text x="1015.0" y="517.68" font-size="13" font-weight="bold" fill="#ffffff" text-anchor="middle">V</text>
<rect x="990" y="530" width="50" height="44" rx="3" fill="#f5d75d"/>
<text x="1015.0" y="549.0" font-size="16" font-weight="bold" fill="#3a3000" text-anchor="middle">23</text>
<text x="1015.0" y="568" font-size="10" fill="#6b5b00" text-anchor="middle">(11 MOSI)</text>
<rect x="990" y="578" width="50" height="44" rx="3" fill="#f5d75d"/>
<text x="1015.0" y="597.0" font-size="16" font-weight="bold" fill="#3a3000" text-anchor="middle">19</text>
<text x="1015.0" y="616" font-size="10" fill="#6b5b00" text-anchor="middle">(12 MISO)</text>
<rect x="990" y="626" width="50" height="44" rx="3" fill="#f5d75d"/>
<text x="1015.0" y="645.0" font-size="16" font-weight="bold" fill="#3a3000" text-anchor="middle">18</text>
<text x="1015.0" y="664" font-size="10" fill="#6b5b00" text-anchor="middle">(13 SCK)</text>
<rect x="990" y="674" width="50" height="44" rx="3" fill="#f5d75d"/>
<text x="1015.0" y="693.0" font-size="16" font-weight="bold" fill="#3a3000" text-anchor="middle">5</text>
<text x="1015.0" y="712" font-size="10" fill="#6b5b00" text-anchor="middle">(10 SS)</text>
<rect x="1044" y="470" width="50" height="26" rx="3" fill="#1c1c1c"/>
<text x="1069.0" y="487.68" font-size="13" font-weight="bold" fill="#ffffff" text-anchor="middle">G</text>
<rect x="1044" y="500" width="50" height="26" rx="3" fill="#a92433"/>
<text x="1069.0" y="517.68" font-size="13" font-weight="bold" fill="#ffffff" text-anchor="middle">V</text>
<rect x="1044" y="530" width="50" height="44" rx="3" fill="#f5d75d"/>
<text x="1069.0" y="549.0" font-size="16" font-weight="bold" fill="#3a3000" text-anchor="middle">23</text>
<text x="1069.0" y="568" font-size="10" fill="#6b5b00" text-anchor="middle">(11 MOSI)</text>
<rect x="1044" y="578" width="50" height="44" rx="3" fill="#f5d75d"/>
<text x="1069.0" y="597.0" font-size="16" font-weight="bold" fill="#3a3000" text-anchor="middle">19</text>
<text x="1069.0" y="616" font-size="10" fill="#6b5b00" text-anchor="middle">(12 MISO)</text>
<rect x="1044" y="626" width="50" height="44" rx="3" fill="#f5d75d"/>
<text x="1069.0" y="645.0" font-size="16" font-weight="bold" fill="#3a3000" text-anchor="middle">18</text>
<text x="1069.0" y="664" font-size="10" fill="#6b5b00" text-anchor="middle">(13 SCK)</text>
<rect x="1044" y="674" width="50" height="44" rx="3" fill="#f5d75d"/>
<text x="1069.0" y="693.0" font-size="16" font-weight="bold" fill="#3a3000" text-anchor="middle">5</text>
<text x="1069.0" y="712" font-size="10" fill="#6b5b00" text-anchor="middle">(10 SS)</text>
<text x="436.0" y="782" font-size="16" font-weight="bold" fill="#ffffff" text-anchor="middle">I2C</text>
<rect x="330" y="790" width="50" height="26" rx="3" fill="#1c1c1c"/>
<text x="355.0" y="807.68" font-size="13" font-weight="bold" fill="#ffffff" text-anchor="middle">G</text>
<rect x="330" y="820" width="50" height="26" rx="3" fill="#a92433"/>
<text x="355.0" y="837.68" font-size="13" font-weight="bold" fill="#ffffff" text-anchor="middle">3V</text>
<rect x="330" y="850" width="50" height="44" rx="3" fill="#f5d75d"/>
<text x="355.0" y="869.0" font-size="16" font-weight="bold" fill="#3a3000" text-anchor="middle">21</text>
<text x="355.0" y="888" font-size="10" fill="#6b5b00" text-anchor="middle">(SDA)</text>
<rect x="330" y="898" width="50" height="44" rx="3" fill="#f5d75d"/>
<text x="355.0" y="917.0" font-size="16" font-weight="bold" fill="#3a3000" text-anchor="middle">22</text>
<text x="355.0" y="936" font-size="10" fill="#6b5b00" text-anchor="middle">(SCL)</text>
<rect x="384" y="790" width="50" height="26" rx="3" fill="#1c1c1c"/>
<text x="409.0" y="807.68" font-size="13" font-weight="bold" fill="#ffffff" text-anchor="middle">G</text>
<rect x="384" y="820" width="50" height="26" rx="3" fill="#a92433"/>
<text x="409.0" y="837.68" font-size="13" font-weight="bold" fill="#ffffff" text-anchor="middle">V</text>
<rect x="384" y="850" width="50" height="44" rx="3" fill="#f5d75d"/>
<text x="409.0" y="869.0" font-size="16" font-weight="bold" fill="#3a3000" text-anchor="middle">21</text>
<text x="409.0" y="888" font-size="10" fill="#6b5b00" text-anchor="middle">(SDA)</text>
<rect x="384" y="898" width="50" height="44" rx="3" fill="#f5d75d"/>
<text x="409.0" y="917.0" font-size="16" font-weight="bold" fill="#3a3000" text-anchor="middle">22</text>
<text x="409.0" y="936" font-size="10" fill="#6b5b00" text-anchor="middle">(SCL)</text>
<rect x="438" y="790" width="50" height="26" rx="3" fill="#1c1c1c"/>
<text x="463.0" y="807.68" font-size="13" font-weight="bold" fill="#ffffff" text-anchor="middle">G</text>
<rect x="438" y="820" width="50" height="26" rx="3" fill="#a92433"/>
<text x="463.0" y="837.68" font-size="13" font-weight="bold" fill="#ffffff" text-anchor="middle">V</text>
<rect x="438" y="850" width="50" height="44" rx="3" fill="#f5d75d"/>
<text x="463.0" y="869.0" font-size="16" font-weight="bold" fill="#3a3000" text-anchor="middle">21</text>
<text x="463.0" y="888" font-size="10" fill="#6b5b00" text-anchor="middle">(SDA)</text>
<rect x="438" y="898" width="50" height="44" rx="3" fill="#f5d75d"/>
<text x="463.0" y="917.0" font-size="16" font-weight="bold" fill="#3a3000" text-anchor="middle">22</text>
<text x="463.0" y="936" font-size="10" fill="#6b5b00" text-anchor="middle">(SCL)</text>
<rect x="492" y="790" width="50" height="26" rx="3" fill="#1c1c1c"/>
<text x="517.0" y="807.68" font-size="13" font-weight="bold" fill="#ffffff" text-anchor="middle">G</text>
<rect x="492" y="820" width="50" height="26" rx="3" fill="#a92433"/>
<text x="517.0" y="837.68" font-size="13" font-weight="bold" fill="#ffffff" text-anchor="middle">V</text>
<rect x="492" y="850" width="50" height="44" rx="3" fill="#f5d75d"/>
<text x="517.0" y="869.0" font-size="16" font-weight="bold" fill="#3a3000" text-anchor="middle">22</text>
<text x="517.0" y="888" font-size="10" fill="#6b5b00" text-anchor="middle">(SCL)</text>
<rect x="492" y="898" width="50" height="44" rx="3" fill="#f5d75d"/>
<text x="517.0" y="917.0" font-size="16" font-weight="bold" fill="#3a3000" text-anchor="middle">21</text>
<text x="517.0" y="936" font-size="10" fill="#6b5b00" text-anchor="middle">(SDA)</text>
<text x="706.0" y="782" font-size="16" font-weight="bold" fill="#ffffff" text-anchor="middle">DA · AD</text>
<rect x="600" y="790" width="50" height="26" rx="3" fill="#1c1c1c"/>
<text x="625.0" y="807.68" font-size="13" font-weight="bold" fill="#ffffff" text-anchor="middle">G</text>
<rect x="600" y="820" width="50" height="26" rx="3" fill="#a92433"/>
<text x="625.0" y="837.68" font-size="13" font-weight="bold" fill="#ffffff" text-anchor="middle">V</text>
<rect x="600" y="850" width="50" height="44" rx="3" fill="#f5d75d"/>
<text x="625.0" y="869.0" font-size="16" font-weight="bold" fill="#3a3000" text-anchor="middle">14</text>
<text x="625.0" y="888" font-size="10" fill="#6b5b00" text-anchor="middle">(7)</text>
<rect x="600" y="898" width="50" height="44" rx="3" fill="#f5d75d"/>
<text x="625.0" y="917.0" font-size="16" font-weight="bold" fill="#3a3000" text-anchor="middle">4†</text>
<text x="625.0" y="936" font-size="10" fill="#6b5b00" text-anchor="middle">(A1)</text>
<rect x="654" y="790" width="50" height="26" rx="3" fill="#1c1c1c"/>
<text x="679.0" y="807.68" font-size="13" font-weight="bold" fill="#ffffff" text-anchor="middle">G</text>
<rect x="654" y="820" width="50" height="26" rx="3" fill="#a92433"/>
<text x="679.0" y="837.68" font-size="13" font-weight="bold" fill="#ffffff" text-anchor="middle">V</text>
<rect x="654" y="850" width="50" height="44" rx="3" fill="#f5d75d"/>
<text x="679.0" y="869.0" font-size="16" font-weight="bold" fill="#3a3000" text-anchor="middle">2†</text>
<text x="679.0" y="888" font-size="10" fill="#6b5b00" text-anchor="middle">(A0)</text>
<rect x="654" y="898" width="50" height="44" rx="3" fill="#f5d75d"/>
<text x="679.0" y="917.0" font-size="16" font-weight="bold" fill="#3a3000" text-anchor="middle">12</text>
<text x="679.0" y="936" font-size="10" fill="#6b5b00" text-anchor="middle">(8)</text>
<rect x="708" y="790" width="50" height="26" rx="3" fill="#1c1c1c"/>
<text x="733.0" y="807.68" font-size="13" font-weight="bold" fill="#ffffff" text-anchor="middle">G</text>
<rect x="708" y="820" width="50" height="26" rx="3" fill="#a92433"/>
<text x="733.0" y="837.68" font-size="13" font-weight="bold" fill="#ffffff" text-anchor="middle">V</text>
<rect x="708" y="850" width="50" height="44" rx="3" fill="#f5d75d"/>
<text x="733.0" y="869.0" font-size="16" font-weight="bold" fill="#3a3000" text-anchor="middle">39*</text>
<text x="733.0" y="888" font-size="10" fill="#6b5b00" text-anchor="middle">(A5)</text>
<rect x="708" y="898" width="50" height="44" rx="3" fill="#f5d75d"/>
<text x="733.0" y="917.0" font-size="16" font-weight="bold" fill="#3a3000" text-anchor="middle">—</text>
<text x="733.0" y="936" font-size="10" fill="#6b5b00" text-anchor="middle">(A6)</text>
<rect x="762" y="790" width="50" height="26" rx="3" fill="#1c1c1c"/>
<text x="787.0" y="807.68" font-size="13" font-weight="bold" fill="#ffffff" text-anchor="middle">G</text>
<rect x="762" y="820" width="50" height="26" rx="3" fill="#a92433"/>
<text x="787.0" y="837.68" font-size="13" font-weight="bold" fill="#ffffff" text-anchor="middle">V</text>
<rect x="762" y="850" width="50" height="44" rx="3" fill="#f5d75d"/>
<text x="787.0" y="869.0" font-size="16" font-weight="bold" fill="#3a3000" text-anchor="middle">36*</text>
<text x="787.0" y="888" font-size="10" fill="#6b5b00" text-anchor="middle">(A4)</text>
<rect x="762" y="898" width="50" height="44" rx="3" fill="#f5d75d"/>
<text x="787.0" y="917.0" font-size="16" font-weight="bold" fill="#3a3000" text-anchor="middle">39*</text>
<text x="787.0" y="936" font-size="10" fill="#6b5b00" text-anchor="middle">(A5)</text>
<text x="996.0" y="782" font-size="16" font-weight="bold" fill="#ffffff" text-anchor="middle">Analog</text>
<rect x="890" y="790" width="50" height="26" rx="3" fill="#1c1c1c"/>
<text x="915.0" y="807.68" font-size="13" font-weight="bold" fill="#ffffff" text-anchor="middle">G</text>
<rect x="890" y="820" width="50" height="26" rx="3" fill="#a92433"/>
<text x="915.0" y="837.68" font-size="13" font-weight="bold" fill="#ffffff" text-anchor="middle">V</text>
<rect x="890" y="850" width="50" height="44" rx="3" fill="#f5d75d"/>
<text x="915.0" y="869.0" font-size="16" font-weight="bold" fill="#3a3000" text-anchor="middle">34*</text>
<text x="915.0" y="888" font-size="10" fill="#6b5b00" text-anchor="middle">(A3)</text>
<rect x="890" y="898" width="50" height="44" rx="3" fill="#f5d75d"/>
<text x="915.0" y="917.0" font-size="16" font-weight="bold" fill="#3a3000" text-anchor="middle">36*</text>
<text x="915.0" y="936" font-size="10" fill="#6b5b00" text-anchor="middle">(A4)</text>
<rect x="944" y="790" width="50" height="26" rx="3" fill="#1c1c1c"/>
<text x="969.0" y="807.68" font-size="13" font-weight="bold" fill="#ffffff" text-anchor="middle">G</text>
<rect x="944" y="820" width="50" height="26" rx="3" fill="#a92433"/>
<text x="969.0" y="837.68" font-size="13" font-weight="bold" fill="#ffffff" text-anchor="middle">V</text>
<rect x="944" y="850" width="50" height="44" rx="3" fill="#f5d75d"/>
<text x="969.0" y="869.0" font-size="16" font-weight="bold" fill="#3a3000" text-anchor="middle">35*</text>
<text x="969.0" y="888" font-size="10" fill="#6b5b00" text-anchor="middle">(A2)</text>
<rect x="944" y="898" width="50" height="44" rx="3" fill="#f5d75d"/>
<text x="969.0" y="917.0" font-size="16" font-weight="bold" fill="#3a3000" text-anchor="middle">34*</text>
<text x="969.0" y="936" font-size="10" fill="#6b5b00" text-anchor="middle">(A3)</text>
<rect x="998" y="790" width="50" height="26" rx="3" fill="#1c1c1c"/>
<text x="1023.0" y="807.68" font-size="13" font-weight="bold" fill="#ffffff" text-anchor="middle">G</text>
<rect x="998" y="820" width="50" height="26" rx="3" fill="#a92433"/>
<text x="1023.0" y="837.68" font-size="13" font-weight="bold" fill="#ffffff" text-anchor="middle">V</text>
<rect x="998" y="850" width="50" height="44" rx="3" fill="#f5d75d"/>
<text x="1023.0" y="869.0" font-size="16" font-weight="bold" fill="#3a3000" text-anchor="middle">4†</text>
<text x="1023.0" y="888" font-size="10" fill="#6b5b00" text-anchor="middle">(A1)</text>
<rect x="998" y="898" width="50" height="44" rx="3" fill="#f5d75d"/>
<text x="1023.0" y="917.0" font-size="16" font-weight="bold" fill="#3a3000" text-anchor="middle">35*</text>
<text x="1023.0" y="936" font-size="10" fill="#6b5b00" text-anchor="middle">(A2)</text>
<rect x="1052" y="790" width="50" height="26" rx="3" fill="#1c1c1c"/>
<text x="1077.0" y="807.68" font-size="13" font-weight="bold" fill="#ffffff" text-anchor="middle">G</text>
<rect x="1052" y="820" width="50" height="26" rx="3" fill="#a92433"/>
<text x="1077.0" y="837.68" font-size="13" font-weight="bold" fill="#ffffff" text-anchor="middle">V</text>
<rect x="1052" y="850" width="50" height="44" rx="3" fill="#f5d75d"/>
<text x="1077.0" y="869.0" font-size="16" font-weight="bold" fill="#3a3000" text-anchor="middle">2†</text>
<text x="1077.0" y="888" font-size="10" fill="#6b5b00" text-anchor="middle">(A0)</text>
<rect x="1052" y="898" width="50" height="44" rx="3" fill="#f5d75d"/>
<text x="1077.0" y="917.0" font-size="16" font-weight="bold" fill="#3a3000" text-anchor="middle">4†</text>
<text x="1077.0" y="936" font-size="10" fill="#6b5b00" text-anchor="middle">(A1)</text>
<rect x="90" y="430" width="215" height="290" rx="10" fill="#14607a"/>
<text x="104" y="460" font-size="15" font-weight="bold" fill="#ffffff">읽는 법 · 주의</text>
<text x="104" y="488" font-size="14" font-weight="bold" fill="#f5d75d">*  입력 전용 (ADC1)</text>
<text x="104" y="506" font-size="12" fill="#dbe9ee">WiFi와 같이 써도 안전</text>
<text x="104" y="532" font-size="14" font-weight="bold" fill="#f5d75d">†  ADC2 (GPIO 2·4)</text>
<text x="104" y="550" font-size="12" fill="#dbe9ee">WiFi 켜면 아날로그 불가</text>
<text x="104" y="576" font-size="14" font-weight="bold" fill="#f5d75d">‡  RX0·TX0 (GPIO 3·1)</text>
<text x="104" y="594" font-size="12" fill="#dbe9ee">USB 시리얼과 공유 — 비권장</text>
<text x="104" y="620" font-size="14" font-weight="bold" fill="#f5d75d">—  A6 없음</text>
<text x="104" y="638" font-size="12" fill="#dbe9ee">D1 R32에는 A6가 없어요</text>
<text x="104" y="668" font-size="12" fill="#dbe9ee">내장 LED = GPIO2 (A0와 공유)</text>
<text x="104" y="686" font-size="12" fill="#dbe9ee">아날로그 셀은 A2~A5 위치로!</text>
<rect x="200" y="820" width="80" height="80" rx="8" fill="#e8e8e8"/>
<circle cx="240" cy="860" r="22" fill="#222"/>
<text x="240" y="810" font-size="15" font-weight="bold" fill="#ffffff" text-anchor="middle">RESET</text>
</svg>