<svg xmlns="http://www.w3.org/2000/svg" width="1240" height="780" viewBox="0 0 1240 780" font-family="Pretendard, Noto Sans CJK KR, sans-serif">
<rect width="1240" height="780" fill="#ffffff"/>
<text x="620.0" y="52" font-size="26" font-weight="bold" fill="#1b2536" text-anchor="middle">7세그먼트 숫자표시기 연결 — DIO · CLK 2신호</text>
<text x="620.0" y="80" font-size="15" fill="#56677e" text-anchor="middle">4핀 케이블 : GND · VCC · DIO · CLK — Digital 블록의 한 포트(신호 2칸)를 통째로 사용</text>
<path d="M60 130 L340 130 L370 160 L370 430 L90 430 L60 400 Z" fill="#1b7a96" stroke="#14607a" stroke-width="2"/>
<text x="220" y="160" font-size="13" fill="#dbe9ee" text-anchor="middle">Arduino Gorilla Shield 1.0</text>
<rect x="130" y="180" width="70" height="60" rx="4" fill="#14607a" opacity="0.55"/>
<text x="165.0" y="214.0" font-size="11" fill="#dbe9ee" text-anchor="middle" opacity="0.9">JOY</text>
<rect x="210" y="180" width="70" height="60" rx="4" fill="#f5d75d"/>
<text x="245.0" y="214.0" font-size="12" font-weight="bold" fill="#3a3000" text-anchor="middle">Digital</text>
<rect x="204" y="174" width="82" height="72" rx="7" fill="none" stroke="#a92433" stroke-width="3" stroke-dasharray="7 4"/>
<text x="245.0" y="460" font-size="16" font-weight="bold" fill="#a92433" text-anchor="middle">여기! (위쪽 가운데)</text>
<rect x="290" y="180" width="60" height="60" rx="4" fill="#14607a" opacity="0.55"/>
<text x="320.0" y="214.0" font-size="11" fill="#dbe9ee" text-anchor="middle" opacity="0.9">BT</text>
<rect x="210" y="255" width="90" height="55" rx="4" fill="#14607a" opacity="0.55"/>
<text x="255.0" y="286.5" font-size="11" fill="#dbe9ee" text-anchor="middle" opacity="0.9">PWM</text>
<rect x="315" y="255" width="40" height="70" rx="4" fill="#14607a" opacity="0.55"/>
<text x="335.0" y="294.0" font-size="11" fill="#dbe9ee" text-anchor="middle" opacity="0.9">SPI</text>
<rect x="115" y="340" width="85" height="55" rx="4" fill="#14607a" opacity="0.55"/>
<text x="157.5" y="371.5" font-size="11" fill="#dbe9ee" text-anchor="middle" opacity="0.9">I2C</text>
<rect x="210" y="340" width="70" height="55" rx="4" fill="#14607a" opacity="0.55"/>
<text x="245.0" y="371.5" font-size="11" fill="#dbe9ee" text-anchor="middle" opacity="0.9">DA·AD</text>
<rect x="290" y="340" width="70" height="55" rx="4" fill="#14607a" opacity="0.55"/>
<text x="325.0" y="371.5" font-size="11" fill="#dbe9ee" text-anchor="middle" opacity="0.9">Analog</text>
<path d="M390 310 L450 310" stroke="#1b2536" stroke-width="3" marker-end="url(#arr)"/>
<defs><marker id="arr" markerWidth="10" markerHeight="10" refX="8" refY="3" orient="auto"><path d="M0,0 L9,3 L0,6 Z" fill="#1b2536"/></marker></defs>
<rect x="494" y="92" width="148" height="448.0" rx="14" fill="#1b7a96"/>
<text x="568.0" y="128" font-size="17" font-weight="bold" fill="#ffffff" text-anchor="middle">Digital 포트 (확대)</text>
<rect x="520" y="150.0" width="96" height="80.5" rx="6" fill="#1c1c1c"/>
<text x="568.0" y="199.25" font-size="25" font-weight="bold" fill="#ffffff" text-anchor="middle">G</text>
<rect x="520" y="240.5" width="96" height="80.5" rx="6" fill="#a92433"/>
<text x="568.0" y="289.75" font-size="25" font-weight="bold" fill="#ffffff" text-anchor="middle">V</text>
<rect x="520" y="331.0" width="96" height="80.5" rx="6" fill="#f5d75d"/>
<text x="568.0" y="371.25" font-size="25" font-weight="bold" fill="#3a3000" text-anchor="middle">27</text>
<text x="568.0" y="400.5" font-size="12" fill="#6b5b00" text-anchor="middle">('6' 칸 → DIO)</text>
<rect x="520" y="421.5" width="96" height="80.5" rx="6" fill="#f5d75d"/>
<text x="568.0" y="461.75" font-size="25" font-weight="bold" fill="#3a3000" text-anchor="middle">14</text>
<text x="568.0" y="491.0" font-size="12" fill="#6b5b00" text-anchor="middle">('7' 칸 → CLK)</text>
<rect x="860" y="170" width="330" height="200" rx="12" fill="#1758a8"/>
<rect x="900" y="220" width="250" height="100" rx="8" fill="#111111"/>
<text x="918" y="298" font-size="64" font-weight="bold" fill="#ff3b30" text-anchor="middle" font-family="Courier New">8</text>
<text x="976" y="298" font-size="64" font-weight="bold" fill="#ff3b30" text-anchor="middle" font-family="Courier New">8</text>
<text x="1046" y="298" font-size="64" font-weight="bold" fill="#ff3b30" text-anchor="middle" font-family="Courier New">8</text>
<text x="1104" y="298" font-size="64" font-weight="bold" fill="#ff3b30" text-anchor="middle" font-family="Courier New">8</text>
<circle cx="1012" cy="255" r="5" fill="#ff3b30"/>
<circle cx="1012" cy="285" r="5" fill="#ff3b30"/>
<text x="1025" y="204" font-size="14" font-weight="bold" fill="#ffffff" text-anchor="middle">7-Segment 숫자표시기</text>
<text x="1025" y="400" font-size="16" font-weight="bold" fill="#1b2536" text-anchor="middle">7-Segment 숫자표시기 (TM1637)</text>
<rect x="814" y="184.0" width="46" height="18" rx="4" fill="#1c1c1c"/>
<text x="837" y="197.5" font-size="12" font-weight="bold" fill="#ffffff" text-anchor="middle">GND</text>
<path d="M616 190.25 C 715.0 190.25, 715.0 193.0, 814 193.0" fill="none" stroke="#1c1c1c" stroke-width="6" stroke-linecap="round" opacity="0.9"/>
<rect x="814" y="242.66666666666666" width="46" height="18" rx="4" fill="#a92433"/>
<text x="837" y="256.16666666666663" font-size="12" font-weight="bold" fill="#ffffff" text-anchor="middle">VCC</text>
<path d="M616 280.75 C 715.0 280.75, 715.0 251.66666666666666, 814 251.66666666666666" fill="none" stroke="#a92433" stroke-width="6" stroke-linecap="round" opacity="0.9"/>
<rect x="814" y="301.3333333333333" width="46" height="18" rx="4" fill="#e07b00"/>
<text x="837" y="314.8333333333333" font-size="12" font-weight="bold" fill="#ffffff" text-anchor="middle">DIO</text>
<path d="M616 371.25 C 715.0 371.25, 715.0 310.3333333333333, 814 310.3333333333333" fill="none" stroke="#e07b00" stroke-width="6" stroke-linecap="round" opacity="0.9"/>
<rect x="814" y="360.0" width="46" height="18" rx="4" fill="#1f9d55"/>
<text x="837" y="373.5" font-size="12" font-weight="bold" fill="#ffffff" text-anchor="middle">CLK</text>
<path d="M616 461.75 C 715.0 461.75, 715.0 369.0, 814 369.0" fill="none" stroke="#1f9d55" stroke-width="6" stroke-linecap="round" opacity="0.9"/>
<rect x="60" y="620" width="1130" height="120" rx="12" fill="#e2f6fb"/>
<text x="85" y="654" font-size="15" fill="#1b2536">① Digital 블록에서 포트 하나 선택 — 위 칸 DIO, 아래 칸 CLK (예: 6·7 칸 → 27·14)</text>
<text x="85" y="684" font-size="15" fill="#1b2536">② 라이브러리 관리에서 'TM1637' 검색 → TM1637 by Avishay Orpaz 설치</text>
<text x="85" y="714" font-size="15" fill="#1b2536">③ display.showNumberDecEx(1234, 0b01000000) — 가운데 콜론(:)까지, 시계·타이머에 딱!</text>
<text x="85" y="744" font-size="14" font-weight="bold" fill="#a92433">⚠ 숫자가 안 나오면: DIO·CLK 순서 바꿔 시도 + setBrightness(7) 확인 — 셀 뒷면 라벨과 대조!</text>
</svg>